<svg width="16" height="16" viewBox="0 0 16 16" fill="none" xmlns="http://www.w3.org/2000/svg">
<path d="M8.00001 8.66671C8.3682 8.66671 8.66668 8.36823 8.66668 8.00004C8.66668 7.63185 8.3682 7.33337 8.00001 7.33337C7.63182 7.33337 7.33334 7.63185 7.33334 8.00004C7.33334 8.36823 7.63182 8.66671 8.00001 8.66671Z" stroke="#191716" stroke-width="1.5" stroke-linecap="round" stroke-linejoin="round"/>
<path d="M12.6667 8.66671C13.0349 8.66671 13.3333 8.36823 13.3333 8.00004C13.3333 7.63185 13.0349 7.33337 12.6667 7.33337C12.2985 7.33337 12 7.63185 12 8.00004C12 8.36823 12.2985 8.66671 12.6667 8.66671Z" stroke="#191716" stroke-width="1.5" stroke-linecap="round" stroke-linejoin="round"/>
<path d="M3.33332 8.66671C3.70151 8.66671 3.99999 8.36823 3.99999 8.00004C3.99999 7.63185 3.70151 7.33337 3.33332 7.33337C2.96513 7.33337 2.66666 7.63185 2.66666 8.00004C2.66666 8.36823 2.96513 8.66671 3.33332 8.66671Z" stroke="#191716" stroke-width="1.5" stroke-linecap="round" stroke-linejoin="round"/>
</svg>
