<?xml version="1.0" encoding="UTF-8"?>
<svg id="Layer_2" data-name="Layer 2" xmlns="http://www.w3.org/2000/svg" viewBox="0 0 990 990">
  <defs>
    <style>
      .cls-1 {
        fill: #fbf5e9;
      }

      .cls-2 {
        fill: #527446;
      }
    </style>
  </defs>
  <g id="Layer_1-2" data-name="Layer 1">
    <g>
      <rect class="cls-2" x="0" y="0" width="990" height="990" rx="495" ry="495"/>
      <path class="cls-1" d="M684.59,516.47c18.93,0,29.28-3.33,31.78-4.24l7.78-4.37c46.05-36.64,70.57-86.93,69.05-141.61-1.46-51.89-27.07-104.18-63.73-130.16-48.66-34.42-136.64,8.84-217.6,57.44-5.32-1.27-10.83-1.94-16.5-1.94s-11.61.72-17.11,2.09c-81.04-48.67-169.15-92.11-217.85-57.58-36.67,25.96-62.26,78.27-63.72,130.16-1.53,54.67,23,104.96,69.04,141.59l7.78,4.37c2.49.91,12.83,4.24,31.78,4.24,3.19,0,6.64-.1,10.33-.32l-79.99,174.19,123.67-45.84,45.16,121.8,90.92-198.04,90.89,198.02,45.2-121.79,123.64,45.84-79.94-174.13c3.35.18,6.49.26,9.43.26ZM697.11,281.8c19.11,13.53,39.04,47.42,40.1,86.02.7,24.86-6.38,60.59-43.05,92.2-11.86,1.41-50.47,2.29-121.53-31.12,3.41-11.2,5.27-23.39,5.27-36.22,0-23.9-6.45-45.62-17.38-62.75,107.26-61.39,132.43-51.03,136.59-48.13ZM295.89,460.17c-36.82-31.65-43.93-67.44-43.23-92.34,1.08-38.6,20.99-72.5,40.1-86.03,4.16-2.89,29.38-13.35,137.22,48.49-10.79,17.07-17.15,38.65-17.15,62.39,0,12.7,1.82,24.77,5.17,35.87-72.49,34.25-111.33,32.94-122.11,31.61ZM409.94,620.09l-17.63-47.56-49.4,18.32,40.58-88.39c18.96-6.07,40.5-14.57,64.73-26.33,2.37,1.99,4.83,3.83,7.38,5.52l8.95,19.5-54.62,118.95ZM521.89,392.68s0,.04,0,.06c-.02,24.78-11.81,44.88-26.38,45.02-.05,0-.09,0-.14,0,0,0,0,0,0,0,0,0,0,0,0,0-14.64,0-26.51-20.15-26.53-45.03,0-.02,0-.04,0-.06,0,0,0,0,0,0,0,0,0,0,0,0,0-.94.02-1.88.06-2.81,0-.02,0-.04,0-.06.87-23.57,12.39-42.23,26.48-42.23,0,0,0,0,0,0,0,0,0,0,0,0,.02,0,.04,0,.06,0,14.05.07,25.53,18.69,26.4,42.21,0,.02,0,.04,0,.07.03.93.06,1.86.06,2.81,0,0,0,0,0,0,0,0,0,0,0,0ZM598.41,572.54l-17.62,47.57-54.61-118.96,8.96-19.52c2.43-1.6,4.78-3.35,7.05-5.24,24.43,11.83,46.12,20.35,65.17,26.39l40.44,88.07-49.4-18.32Z"/>
    </g>
  </g>
</svg>