<?xml version="1.0" encoding="UTF-8"?>
<svg id="Layer_2" data-name="Layer 2" xmlns="http://www.w3.org/2000/svg" viewBox="0 0 112.16 27.26">
  <defs>
    <style>
      .cls-1 {
        fill: #fff;
      }
    </style>
  </defs>
  <g id="Layer_3" data-name="Layer 3">
    <g>
      <g>
        <path class="cls-1" d="M.1,27.06v-4.97h.66v2.47l2.47-2.47h.89l-2.09,2.02,2.18,2.96h-.87l-1.77-2.52-.81.79v1.72H.1Z"/>
        <path class="cls-1" d="M8.01,22.08h.66v2.87c0,.5-.06.9-.17,1.19-.11.29-.32.53-.61.72-.3.18-.68.28-1.16.28s-.85-.08-1.14-.24c-.3-.16-.51-.39-.63-.7-.13-.3-.19-.72-.19-1.25v-2.87h.66v2.87c0,.43.04.75.12.96s.22.36.41.47c.2.11.43.17.72.17.48,0,.83-.11,1.03-.33.21-.22.31-.64.31-1.27v-2.87Z"/>
        <path class="cls-1" d="M9.73,27.06v-4.97h.68l2.61,3.91v-3.91h.63v4.97h-.68l-2.61-3.91v3.91h-.63Z"/>
        <path class="cls-1" d="M14.51,25.46l.62-.05c.03.25.1.45.21.61s.27.29.5.39c.23.1.48.15.76.15.25,0,.47-.04.67-.11.19-.07.34-.18.43-.31.09-.13.14-.27.14-.43s-.05-.29-.14-.41c-.09-.12-.24-.21-.45-.29-.13-.05-.43-.13-.89-.24-.46-.11-.78-.21-.96-.31-.24-.12-.41-.28-.53-.46-.12-.18-.17-.39-.17-.62,0-.25.07-.49.21-.7.14-.22.35-.38.62-.5s.58-.17.91-.17c.37,0,.69.06.98.18s.5.29.65.52c.15.23.23.49.24.78l-.63.05c-.03-.31-.15-.55-.34-.71-.2-.16-.48-.24-.87-.24s-.69.07-.87.22c-.18.15-.27.32-.27.53,0,.18.06.33.19.44.13.12.46.23.99.35.53.12.9.23,1.1.32.29.13.5.3.64.51.14.2.21.44.21.71s-.08.51-.23.75c-.15.23-.37.42-.65.55-.28.13-.6.19-.96.19-.45,0-.83-.07-1.13-.2-.3-.13-.54-.33-.72-.59-.17-.26-.26-.56-.27-.89Z"/>
        <path class="cls-1" d="M20.62,27.06v-4.39h-1.64v-.59h3.94v.59h-1.65v4.39h-.66Z"/>
        <path class="cls-1" d="M25.47,27.06v-4.97h.66v4.97h-.66Z"/>
        <path class="cls-1" d="M27.26,27.06v-4.97h.68l2.61,3.91v-3.91h.63v4.97h-.68l-2.61-3.91v3.91h-.63Z"/>
        <path class="cls-1" d="M33.53,27.06v-4.39h-1.64v-.59h3.94v.59h-1.65v4.39h-.66Z"/>
        <path class="cls-1" d="M36.51,27.06v-4.97h3.6v.59h-2.94v1.52h2.75v.58h-2.75v1.69h3.05v.59h-3.71Z"/>
        <path class="cls-1" d="M41.12,27.06v-4.97h2.21c.44,0,.78.04,1.01.13s.41.25.55.47c.14.23.21.48.21.75,0,.35-.11.65-.34.89-.23.24-.58.4-1.06.46.17.08.31.17.4.25.19.18.37.4.55.66l.87,1.35h-.83l-.66-1.04c-.19-.3-.35-.53-.47-.69-.12-.16-.24-.27-.33-.33s-.2-.11-.3-.13c-.07-.02-.2-.02-.37-.02h-.76v2.21h-.66ZM41.77,24.28h1.42c.3,0,.54-.03.71-.09s.3-.16.39-.3c.09-.14.13-.29.13-.45,0-.24-.09-.43-.26-.58-.17-.15-.44-.23-.81-.23h-1.57v1.65Z"/>
        <path class="cls-1" d="M46.22,27.06v-4.97h.66v4.97h-.66Z"/>
        <path class="cls-1" d="M51.72,22.54l.57-.64.34.28-.6.67c.19.29.33.54.39.76.09.28.14.6.14.96,0,.51-.1.96-.31,1.36-.21.4-.5.7-.87.9-.37.2-.77.31-1.19.31-.31,0-.59-.04-.85-.13-.19-.07-.42-.2-.68-.39l-.57.64-.34-.28.6-.67c-.22-.34-.37-.62-.44-.86-.07-.24-.11-.53-.11-.86,0-.51.1-.97.31-1.37.2-.4.49-.7.86-.91s.78-.31,1.23-.31c.3,0,.57.04.8.12.23.08.47.22.73.42ZM51.31,23c-.21-.17-.4-.28-.56-.34s-.35-.09-.56-.09c-.5,0-.9.17-1.23.5-.32.34-.49.84-.49,1.5,0,.26.02.5.07.7.04.15.11.34.23.56l2.53-2.83ZM51.59,23.35l-2.52,2.82c.17.14.33.24.48.3.19.07.4.11.62.11.49,0,.9-.17,1.22-.52.32-.35.48-.84.48-1.47,0-.47-.1-.89-.29-1.25Z"/>
        <path class="cls-1" d="M53.41,27.06v-4.97h2.21c.44,0,.78.04,1.01.13s.41.25.55.47c.14.23.21.48.21.75,0,.35-.11.65-.34.89-.23.24-.58.4-1.06.46.17.08.31.17.4.25.19.18.37.4.55.66l.87,1.35h-.83l-.66-1.04c-.19-.3-.35-.53-.47-.69-.12-.16-.24-.27-.33-.33s-.2-.11-.3-.13c-.07-.02-.2-.02-.37-.02h-.76v2.21h-.66ZM54.07,24.28h1.42c.3,0,.54-.03.71-.09s.3-.16.39-.3c.09-.14.13-.29.13-.45,0-.24-.09-.43-.26-.58-.17-.15-.44-.23-.81-.23h-1.57v1.65Z"/>
        <path class="cls-1" d="M60.62,27.1v-4.97h1.71c.39,0,.68.02.89.07.28.07.53.18.73.36.26.22.46.5.59.85.13.34.19.74.19,1.18,0,.38-.04.71-.13,1-.09.29-.2.53-.34.72s-.29.34-.45.45c-.16.11-.36.19-.59.25s-.5.08-.8.08h-1.79ZM61.28,26.51h1.06c.33,0,.59-.03.77-.09.19-.06.34-.15.45-.26.16-.16.28-.37.36-.63.09-.26.13-.58.13-.96,0-.52-.09-.92-.26-1.2-.17-.28-.38-.47-.62-.56-.18-.07-.46-.1-.85-.1h-1.05v3.8Z"/>
        <path class="cls-1" d="M65.67,27.1v-4.97h3.6v.59h-2.94v1.52h2.75v.58h-2.75v1.69h3.05v.59h-3.71Z"/>
        <path class="cls-1" d="M70.28,27.1v-4.97h.66v4.39h2.45v.59h-3.11Z"/>
        <path class="cls-1" d="M74.3,27.1v-4.97h.66v4.97h-.66Z"/>
        <path class="cls-1" d="M76.1,27.1v-4.97h.66v2.47l2.47-2.47h.89l-2.09,2.02,2.18,2.96h-.87l-1.77-2.52-.81.79v1.72h-.66Z"/>
        <path class="cls-1" d="M80.23,27.1l1.91-4.97h.71l2.04,4.97h-.75l-.58-1.51h-2.08l-.55,1.51h-.7ZM81.67,25.06h1.69l-.52-1.38c-.16-.42-.28-.76-.35-1.03-.06.32-.15.64-.27.95l-.55,1.46Z"/>
        <path class="cls-1" d="M86.18,27.1v-4.39h-1.64v-.59h3.94v.59h-1.65v4.39h-.66Z"/>
        <path class="cls-1" d="M89.18,27.1v-4.97h3.6v.59h-2.94v1.52h2.75v.58h-2.75v1.69h3.05v.59h-3.71Z"/>
        <path class="cls-1" d="M93.6,25.5l.62-.05c.03.25.1.45.21.61.11.16.27.29.5.39.23.1.48.15.76.15.25,0,.47-.04.66-.11.19-.07.34-.18.43-.31.09-.13.14-.27.14-.43s-.05-.29-.14-.41c-.09-.12-.24-.21-.45-.29-.13-.05-.43-.13-.89-.24-.46-.11-.78-.21-.96-.31-.24-.12-.41-.28-.53-.46-.12-.18-.17-.39-.17-.62,0-.25.07-.49.21-.7.14-.22.35-.38.62-.5.27-.11.58-.17.91-.17.37,0,.69.06.98.18.28.12.5.29.65.52s.23.49.24.78l-.63.05c-.03-.31-.15-.55-.34-.71-.2-.16-.48-.24-.87-.24s-.69.07-.87.22c-.18.15-.27.32-.27.53,0,.18.06.33.19.44.13.12.46.23.99.35.54.12.9.23,1.1.32.29.13.5.3.64.51.14.2.21.44.21.71s-.08.51-.23.75c-.15.23-.37.42-.65.55-.28.13-.6.19-.96.19-.45,0-.83-.07-1.13-.2-.3-.13-.54-.33-.72-.59s-.26-.56-.27-.89Z"/>
        <path class="cls-1" d="M98.24,25.5l.62-.05c.03.25.1.45.21.61.11.16.27.29.5.39.23.1.48.15.76.15.25,0,.47-.04.66-.11.19-.07.34-.18.43-.31.09-.13.14-.27.14-.43s-.05-.29-.14-.41c-.09-.12-.24-.21-.45-.29-.13-.05-.43-.13-.89-.24-.46-.11-.78-.21-.96-.31-.24-.12-.41-.28-.53-.46-.12-.18-.17-.39-.17-.62,0-.25.07-.49.21-.7.14-.22.35-.38.62-.5.27-.11.58-.17.91-.17.37,0,.69.06.98.18.28.12.5.29.65.52s.23.49.24.78l-.63.05c-.03-.31-.15-.55-.34-.71-.2-.16-.48-.24-.87-.24s-.69.07-.87.22c-.18.15-.27.32-.27.53,0,.18.06.33.19.44.13.12.46.23.99.35.54.12.9.23,1.1.32.29.13.5.3.64.51.14.2.21.44.21.71s-.08.51-.23.75c-.15.23-.37.42-.65.55-.28.13-.6.19-.96.19-.45,0-.83-.07-1.13-.2-.3-.13-.54-.33-.72-.59s-.26-.56-.27-.89Z"/>
        <path class="cls-1" d="M103.13,27.1v-4.97h3.6v.59h-2.94v1.52h2.75v.58h-2.75v1.69h3.05v.59h-3.71Z"/>
        <path class="cls-1" d="M107.78,27.1v-4.97h2.21c.44,0,.78.04,1.01.13s.41.25.55.47c.14.23.21.48.21.75,0,.35-.11.65-.34.89-.23.24-.58.4-1.06.46.17.08.31.17.4.25.19.18.37.4.55.66l.87,1.35h-.83l-.66-1.04c-.19-.3-.35-.53-.47-.69-.12-.16-.24-.27-.33-.33s-.2-.11-.3-.13c-.07-.02-.2-.02-.37-.02h-.76v2.21h-.66ZM108.44,24.32h1.42c.3,0,.54-.03.71-.09s.3-.16.39-.3c.09-.14.13-.29.13-.45,0-.24-.09-.43-.26-.58-.17-.15-.44-.23-.81-.23h-1.57v1.65Z"/>
      </g>
      <g>
        <path class="cls-1" d="M7.23.96l-.05,2.46-.05,3.91v2.86s.06,6.05.06,6.05h.85s5.02-.07,5.02-.07h.92c.46-.01.69.13.69.41,0,.25-.13.38-.38.41-.05,0-.23.02-.54.02H0l.04-4.47.02-2.74.02-3.1L.04,1.97V.96h7.19Z"/>
        <path class="cls-1" d="M23.29.96v.82l-.07,6.44.07,8.78h-7.19l.07-9.6-.08-5.86v-.58h7.2Z"/>
        <path class="cls-1" d="M44.95,9.39c1.26-3.03,2.3-5.64,3.11-7.84.13-.36.24-.58.32-.67.08-.09.21-.13.4-.13.16,0,.29.04.41.12.11.08.17.17.17.28,0,.1-.31.85-.92,2.23l-.68,1.53-5.84,13.23-2.9-5.46-2.28-4.06-1.8,3.29-2.74,5.13-.56,1.1-2.27-5.59-2-4.85c-.99-2.44-1.94-4.63-2.86-6.57l-.07-.15h7.35l1.01,2.58c1.04,2.58,1.85,4.52,2.46,5.81l2.18-3.99.8-1.5.54-1.01.91-1.69c.14-.27.27-.52.4-.74l1.74,3.39c1,1.92,2.04,3.78,3.12,5.58Z"/>
        <path class="cls-1" d="M57.6.96v.82l-.07,6.44.07,8.78h-7.19l.07-9.6-.08-5.86v-.58h7.21Z"/>
        <path class="cls-1" d="M70.13,14.35c.75.52,1.56.96,2.44,1.32.87.37,1.81.65,2.81.85.24.05.36.16.36.35,0,.26-.18.39-.54.39-.82,0-1.98-.36-3.46-1.08-1.24-.6-2.65-1.54-4.25-2.8v2.48s.01,1.14.01,1.14h-7.16v-.53l.02-3.83.04-4.58-.02-7.1h4.72c2.11,0,3.71.06,4.79.18,1.08.12,2,.34,2.76.66,1.24.52,2.22,1.37,2.94,2.55.67,1.1,1,2.25,1,3.46,0,1.29-.37,2.5-1.12,3.63-1.2,1.83-2.98,2.8-5.34,2.91ZM69.01,13.62h.56c1.61.01,2.97-.44,4.08-1.34.7-.56,1.24-1.27,1.62-2.12.35-.78.53-1.57.53-2.37,0-1.37-.45-2.6-1.34-3.68-.68-.84-1.53-1.43-2.56-1.77-1.02-.34-2.47-.53-4.33-.55l-.11,7.87v2.68c.49.46,1,.89,1.54,1.28Z"/>
        <path class="cls-1" d="M87.08,0l9.4,17.01h-8.15l-1.14-2.15h-7.4s-.58-.02-.58-.02l-.77,1.44c-.23.43-.38.7-.48.8s-.2.16-.34.16c-.27,0-.4-.12-.4-.35,0-.1.08-.29.23-.57.15-.28.69-1.19,1.61-2.74l7.12-11.98.92-1.59ZM83.43,7.72l-2.05,3.45-1.64,2.85,3.51.05,3.52-.05-3.33-6.3Z"/>
      </g>
    </g>
  </g>
</svg>