<svg width="48" height="48" viewBox="0 0 48 48" fill="none" xmlns="http://www.w3.org/2000/svg">
<path d="M24 44C35.0457 44 44 35.0457 44 24C44 12.9543 35.0457 4 24 4C12.9543 4 4 12.9543 4 24C4 35.0457 12.9543 44 24 44Z" stroke="#191716" stroke-width="2.5" stroke-linecap="round" stroke-linejoin="round"/>
<path d="M18.18 18C18.6502 16.6634 19.5783 15.5363 20.7999 14.8183C22.0215 14.1004 23.4578 13.8379 24.8543 14.0775C26.2509 14.317 27.5176 15.0431 28.4301 16.1271C29.3427 17.2111 29.8421 18.5831 29.84 20C29.84 24 23.84 26 23.84 26" stroke="#191716" stroke-width="2.5" stroke-linecap="round" stroke-linejoin="round"/>
<path d="M24 34H24.02" stroke="#191716" stroke-width="2.5" stroke-linecap="round" stroke-linejoin="round"/>
</svg>
