<svg width="52" height="52" viewBox="0 0 52 52" fill="none" xmlns="http://www.w3.org/2000/svg">
<path d="M4.09104 21.5771C5.65016 12.2135 6.42973 7.53178 9.38935 4.76589C12.349 2 16.5791 2 25.0393 2H26.9607C35.4209 2 39.651 2 42.6106 4.76589C45.5703 7.53178 46.3498 12.2135 47.909 21.5771C50.1014 34.7439 51.1976 41.3273 48.0016 45.6636C44.8056 50 38.8573 50 26.9607 50H25.0393C13.1427 50 7.19442 50 3.99842 45.6636C0.802428 41.3273 1.89863 34.7439 4.09104 21.5771Z" stroke="#191716" stroke-width="2.5"/>
<path d="M16 10C17.4556 12.3304 21.3832 14 26 14C30.6168 14 34.5444 12.3304 36 10" stroke="#191716" stroke-width="2.5" stroke-linecap="round"/>
</svg>
