<svg width="56" height="56" viewBox="0 0 56 56" fill="none" xmlns="http://www.w3.org/2000/svg">
<path d="M48.6267 10.7568C47.4349 9.56445 46.0199 8.61862 44.4625 7.97331C42.9051 7.32799 41.2358 6.99585 39.55 6.99585C37.8642 6.99585 36.1949 7.32799 34.6375 7.97331C33.0801 8.61862 31.6651 9.56445 30.4733 10.7568L28 13.2301L25.5267 10.7568C23.1194 8.34949 19.8544 6.9971 16.45 6.9971C13.0456 6.9971 9.78061 8.34949 7.37333 10.7568C4.96604 13.1641 3.61365 16.429 3.61365 19.8334C3.61365 23.2379 4.96604 26.5028 7.37333 28.9101L9.84666 31.3834L28 49.5368L46.1533 31.3834L48.6267 28.9101C49.819 27.7183 50.7648 26.3033 51.4101 24.7459C52.0554 23.1885 52.3876 21.5192 52.3876 19.8334C52.3876 18.1476 52.0554 16.4784 51.4101 14.9209C50.7648 13.3635 49.819 11.9485 48.6267 10.7568Z" stroke="#191716" stroke-width="3" stroke-linecap="round" stroke-linejoin="round"/>
</svg>
