<svg width="56" height="56" viewBox="0 0 56 56" fill="none" xmlns="http://www.w3.org/2000/svg">
<path d="M28 51.3334C40.8867 51.3334 51.3333 40.8867 51.3333 28.0001C51.3333 15.1134 40.8867 4.66675 28 4.66675C15.1134 4.66675 4.66667 15.1134 4.66667 28.0001C4.66667 40.8867 15.1134 51.3334 28 51.3334Z" stroke="#191716" stroke-width="3" stroke-linecap="round" stroke-linejoin="round"/>
<path d="M21.21 21.0001C21.7586 19.4407 22.8414 18.1257 24.2666 17.2881C25.6918 16.4505 27.3674 16.1443 28.9968 16.4238C30.6261 16.7032 32.1039 17.5503 33.1685 18.815C34.2331 20.0797 34.8158 21.6803 34.8133 23.3334C34.8133 28.0001 27.8133 30.3334 27.8133 30.3334" stroke="#191716" stroke-width="3" stroke-linecap="round" stroke-linejoin="round"/>
<path d="M28 39.6667H28.0233" stroke="#191716" stroke-width="3" stroke-linecap="round" stroke-linejoin="round"/>
</svg>
