<svg width="56" height="56" viewBox="0 0 56 56" fill="none" xmlns="http://www.w3.org/2000/svg">
<path d="M39.6667 4.66675H16.3334C9.89003 4.66675 4.66669 9.89009 4.66669 16.3334V39.6668C4.66669 46.1101 9.89003 51.3334 16.3334 51.3334H39.6667C46.11 51.3334 51.3334 46.1101 51.3334 39.6668V16.3334C51.3334 9.89009 46.11 4.66675 39.6667 4.66675Z" stroke="#191716" stroke-width="3" stroke-linecap="round" stroke-linejoin="round"/>
<path d="M37.3334 26.53C37.6213 28.4719 37.2896 30.4551 36.3855 32.1977C35.4813 33.9402 34.0507 35.3533 32.2972 36.2359C30.5436 37.1185 28.5564 37.4257 26.6182 37.1138C24.68 36.8019 22.8895 35.8868 21.5013 34.4987C20.1132 33.1105 19.1981 31.32 18.8862 29.3818C18.5743 27.4436 18.8815 25.4564 19.7641 23.7028C20.6467 21.9493 22.0598 20.5187 23.8023 19.6145C25.5449 18.7104 27.5281 18.3787 29.47 18.6666C31.4508 18.9604 33.2847 19.8834 34.7006 21.2994C36.1166 22.7153 37.0396 24.5492 37.3334 26.53Z" stroke="#191716" stroke-width="3" stroke-linecap="round" stroke-linejoin="round"/>
<path d="M40.8333 15.1667H40.8566" stroke="#191716" stroke-width="3" stroke-linecap="round" stroke-linejoin="round"/>
</svg>
