<svg width="60" height="60" viewBox="0 0 60 60" fill="none" xmlns="http://www.w3.org/2000/svg">
<path d="M57.9983 43.9268V52.357C58.0014 53.1396 57.8408 53.9143 57.5267 54.6314C57.2125 55.3484 56.7518 55.9921 56.1739 56.5212C55.5961 57.0503 54.9139 57.4531 54.1711 57.7038C53.4282 57.9545 52.6411 58.0476 51.8601 57.9772C43.1958 57.0376 34.8732 54.0828 27.5609 49.3502C20.7578 45.0358 14.9899 39.2794 10.6669 32.4897C5.90841 25.1588 2.94708 16.8122 2.02285 8.12626C1.95249 7.34918 2.04503 6.56599 2.29457 5.82655C2.54411 5.08712 2.94518 4.40764 3.47226 3.83138C3.99934 3.25512 4.64087 2.79471 5.35601 2.47945C6.07115 2.1642 6.84423 2.00101 7.62603 2.00027H16.073C17.4395 1.98685 18.7642 2.46978 19.8003 3.35904C20.8364 4.2483 21.5131 5.48322 21.7043 6.83362C22.0609 9.53149 22.7221 12.1804 23.6753 14.73C24.0541 15.7358 24.1361 16.8289 23.9116 17.8797C23.687 18.9306 23.1653 19.8952 22.4083 20.6592L18.8324 24.2281C22.8406 31.2632 28.6772 37.0883 35.7264 41.0886L39.3023 37.5198C40.0678 36.7642 41.0343 36.2436 42.0873 36.0194C43.1402 35.7953 44.2355 35.8771 45.2433 36.2552C47.7979 37.2066 50.4521 37.8665 53.1553 38.2223C54.5231 38.4149 55.7722 39.1024 56.6651 40.1542C57.5581 41.206 58.0325 42.5486 57.9983 43.9268Z" stroke="#191716" stroke-width="3" stroke-linecap="round" stroke-linejoin="round"/>
</svg>
