<svg width="48" height="48" viewBox="0 0 48 48" fill="none" xmlns="http://www.w3.org/2000/svg">
<path d="M24 44C35.0457 44 44 35.0457 44 24C44 12.9543 35.0457 4 24 4C12.9543 4 4 12.9543 4 24C4 35.0457 12.9543 44 24 44Z" stroke="#FCFEFD" stroke-width="2.5" stroke-linecap="round" stroke-linejoin="round"/>
<path d="M18.18 17.9999C18.6502 16.6633 19.5783 15.5361 20.7999 14.8182C22.0215 14.1002 23.4578 13.8378 24.8543 14.0773C26.2509 14.3169 27.5176 15.043 28.4301 16.127C29.3427 17.211 29.8421 18.583 29.84 19.9999C29.84 23.9999 23.84 25.9999 23.84 25.9999" stroke="#FCFEFD" stroke-width="2.5" stroke-linecap="round" stroke-linejoin="round"/>
<path d="M24 34H24.02" stroke="#FCFEFD" stroke-width="2.5" stroke-linecap="round" stroke-linejoin="round"/>
</svg>
