<svg width="52" height="52" viewBox="0 0 52 52" fill="none" xmlns="http://www.w3.org/2000/svg">
<path d="M49.9985 37.9372V45.1632C50.0012 45.834 49.8636 46.498 49.5943 47.1126C49.325 47.7272 48.9301 48.2789 48.4348 48.7324C47.9395 49.1859 47.3548 49.5312 46.7181 49.7461C46.0813 49.961 45.4067 50.0408 44.7372 49.9804C37.3107 49.1751 30.177 46.6424 23.9094 42.5859C18.0781 38.8878 13.1342 33.9537 9.42881 28.134C5.35007 21.8504 2.81178 14.6962 2.01959 7.25108C1.95928 6.58501 2.03859 5.9137 2.25249 5.2799C2.46638 4.6461 2.81016 4.06369 3.26194 3.56976C3.71372 3.07582 4.2636 2.68118 4.87658 2.41096C5.48956 2.14074 6.1522 2.00086 6.82231 2.00023H14.0626C15.2338 1.98873 16.3693 2.40267 17.2574 3.16489C18.1455 3.92712 18.7255 4.98562 18.8894 6.1431C19.195 8.45556 19.7618 10.7261 20.5788 12.9114C20.9036 13.7735 20.9738 14.7104 20.7813 15.6112C20.5889 16.5119 20.1417 17.3388 19.4928 17.9936L16.4277 21.0526C19.8634 27.0828 24.8662 32.0756 30.9083 35.5045L33.9734 32.4455C34.6295 31.7979 35.458 31.3516 36.3605 31.1595C37.2631 30.9674 38.2019 31.0376 39.0657 31.3616C41.2553 32.1771 43.5304 32.7427 45.8474 33.0477C47.0198 33.2127 48.0905 33.8021 48.8558 34.7036C49.6212 35.6051 50.0279 36.756 49.9985 37.9372Z" stroke="#61210F" stroke-width="2.5" stroke-linecap="round" stroke-linejoin="round"/>
</svg>
