<svg width="16" height="16" viewBox="0 0 16 16" fill="none" xmlns="http://www.w3.org/2000/svg">
<g clip-path="url(#clip0_133_1520)">
<path d="M7.99999 14.6668C11.6819 14.6668 14.6667 11.6821 14.6667 8.00016C14.6667 4.31826 11.6819 1.3335 7.99999 1.3335C4.3181 1.3335 1.33333 4.31826 1.33333 8.00016C1.33333 11.6821 4.3181 14.6668 7.99999 14.6668Z" stroke="#61210F" stroke-width="1.5" stroke-linecap="round" stroke-linejoin="round"/>
<path d="M6.06 5.99989C6.21673 5.55434 6.5261 5.17863 6.9333 4.93931C7.3405 4.7 7.81926 4.61252 8.28478 4.69237C8.7503 4.77222 9.17254 5.01424 9.47672 5.37558C9.78089 5.73691 9.94737 6.19424 9.94666 6.66656C9.94666 7.99989 7.94666 8.66656 7.94666 8.66656" stroke="#61210F" stroke-width="1.5" stroke-linecap="round" stroke-linejoin="round"/>
<path d="M8 11.3335H8.00667" stroke="#61210F" stroke-width="1.5" stroke-linecap="round" stroke-linejoin="round"/>
</g>
<defs>
<clipPath id="clip0_133_1520">
<rect width="16" height="16" fill="white"/>
</clipPath>
</defs>
</svg>
