<svg width="16" height="16" viewBox="0 0 16 16" fill="none" xmlns="http://www.w3.org/2000/svg">
<g clip-path="url(#clip0_133_1511)">
<path d="M11.3333 1.3335H4.66668C2.82573 1.3335 1.33334 2.82588 1.33334 4.66683V11.3335C1.33334 13.1744 2.82573 14.6668 4.66668 14.6668H11.3333C13.1743 14.6668 14.6667 13.1744 14.6667 11.3335V4.66683C14.6667 2.82588 13.1743 1.3335 11.3333 1.3335Z" stroke="#61210F" stroke-width="1.5" stroke-linecap="round" stroke-linejoin="round"/>
<path d="M10.6667 7.5802C10.7489 8.13503 10.6542 8.70168 10.3958 9.19954C10.1375 9.69741 9.72877 10.1011 9.22776 10.3533C8.72675 10.6055 8.15897 10.6933 7.6052 10.6042C7.05143 10.515 6.53985 10.2536 6.14323 9.85698C5.74662 9.46036 5.48516 8.94878 5.39605 8.39501C5.30694 7.84124 5.39472 7.27346 5.64689 6.77245C5.89907 6.27144 6.3028 5.86269 6.80066 5.60436C7.29853 5.34603 7.86518 5.25126 8.42001 5.33353C8.98596 5.41746 9.50991 5.68118 9.91447 6.08574C10.319 6.4903 10.5828 7.01425 10.6667 7.5802Z" stroke="#61210F" stroke-linecap="round" stroke-linejoin="round"/>
<path d="M11.6667 4.3335H11.6733" stroke="#61210F" stroke-width="1.5" stroke-linecap="round" stroke-linejoin="round"/>
</g>
<defs>
<clipPath id="clip0_133_1511">
<rect width="16" height="16" fill="white"/>
</clipPath>
</defs>
</svg>
