<svg width="16" height="16" viewBox="0 0 16 16" fill="none" xmlns="http://www.w3.org/2000/svg">
<g clip-path="url(#clip0_133_1494)">
<path d="M6.00001 14.6668C6.3682 14.6668 6.66668 14.3684 6.66668 14.0002C6.66668 13.632 6.3682 13.3335 6.00001 13.3335C5.63182 13.3335 5.33334 13.632 5.33334 14.0002C5.33334 14.3684 5.63182 14.6668 6.00001 14.6668Z" stroke="#61210F" stroke-width="1.5" stroke-linecap="round" stroke-linejoin="round"/>
<path d="M13.3333 14.6668C13.7015 14.6668 14 14.3684 14 14.0002C14 13.632 13.7015 13.3335 13.3333 13.3335C12.9651 13.3335 12.6667 13.632 12.6667 14.0002C12.6667 14.3684 12.9651 14.6668 13.3333 14.6668Z" stroke="#61210F" stroke-width="1.5" stroke-linecap="round" stroke-linejoin="round"/>
<path d="M0.666656 0.666504H3.33332L5.11999 9.59317C5.18095 9.9001 5.34793 10.1758 5.59169 10.372C5.83545 10.5683 6.14046 10.6725 6.45332 10.6665H12.9333C13.2462 10.6725 13.5512 10.5683 13.795 10.372C14.0387 10.1758 14.2057 9.9001 14.2667 9.59317L15.3333 3.99984H3.99999" stroke="#61210F" stroke-width="1.5" stroke-linecap="round" stroke-linejoin="round"/>
</g>
<defs>
<clipPath id="clip0_133_1494">
<rect width="16" height="16" fill="white"/>
</clipPath>
</defs>
</svg>
