<svg width="18" height="18" viewBox="0 0 18 18" fill="none" xmlns="http://www.w3.org/2000/svg">
<path d="M1.69701 7.52569C2.21672 4.40452 2.47658 2.84393 3.46312 1.92196C4.44965 1 5.85969 1 8.67977 1H9.32022C12.1403 1 13.5503 1 14.5369 1.92196C15.5234 2.84393 15.7833 4.40452 16.303 7.52569C17.0338 11.9146 17.3992 14.1091 16.3339 15.5545C15.2685 17 13.2858 17 9.32023 17H8.67977C4.71424 17 2.73147 17 1.66614 15.5545C0.600809 14.1091 0.966209 11.9146 1.69701 7.52569Z" stroke="#61210F" stroke-width="1.5"/>
<path d="M6 3.00008C6.49907 5.1512 7.84568 6.69238 9.42857 6.69238C11.0115 6.69238 12.3581 5.1512 12.8571 3.00008" stroke="#61210F" stroke-width="1.5" stroke-linecap="round"/>
</svg>
