<svg width="12" height="12" viewBox="0 0 12 12" fill="none" xmlns="http://www.w3.org/2000/svg">
<g clip-path="url(#clip0_112_32)">
<path d="M6 11C8.76142 11 11 8.76142 11 6C11 3.23858 8.76142 1 6 1C3.23858 1 1 3.23858 1 6C1 8.76142 3.23858 11 6 11Z" stroke="#191716" stroke-linecap="round" stroke-linejoin="round"/>
<path d="M4.545 4.50004C4.66255 4.16587 4.89457 3.88409 5.19998 3.70461C5.50538 3.52512 5.86445 3.45951 6.21359 3.5194C6.56273 3.57928 6.87941 3.7608 7.10754 4.0318C7.33567 4.30281 7.46053 4.6458 7.46 5.00004C7.46 6.00004 5.96 6.50004 5.96 6.50004" stroke="#191716" stroke-linecap="round" stroke-linejoin="round"/>
<path d="M6 8.5H6.005" stroke="#191716" stroke-linecap="round" stroke-linejoin="round"/>
</g>
<defs>
<clipPath id="clip0_112_32">
<rect width="12" height="12" fill="white"/>
</clipPath>
</defs>
</svg>
