<svg width="12" height="12" viewBox="0 0 12 12" fill="none" xmlns="http://www.w3.org/2000/svg">
<g clip-path="url(#clip0_112_28)">
<path d="M8.5 1H3.5C2.11929 1 1 2.11929 1 3.5V8.5C1 9.88071 2.11929 11 3.5 11H8.5C9.88071 11 11 9.88071 11 8.5V3.5C11 2.11929 9.88071 1 8.5 1Z" stroke="#191716" stroke-linecap="round" stroke-linejoin="round"/>
<path d="M8.00001 5.68503C8.06171 6.10115 7.99064 6.52614 7.79689 6.89954C7.60314 7.27294 7.29658 7.57573 6.92082 7.76487C6.54506 7.954 6.11923 8.01983 5.7039 7.95299C5.28857 7.88616 4.90489 7.69007 4.60743 7.39261C4.30996 7.09515 4.11387 6.71147 4.04704 6.29614C3.98021 5.8808 4.04604 5.45498 4.23517 5.07922C4.4243 4.70346 4.7271 4.3969 5.1005 4.20315C5.4739 4.0094 5.89888 3.93832 6.31501 4.00003C6.73947 4.06297 7.13243 4.26076 7.43585 4.56418C7.73927 4.8676 7.93706 5.26057 8.00001 5.68503Z" stroke="#191716" stroke-linecap="round" stroke-linejoin="round"/>
<path d="M8.75 3.25H8.755" stroke="#191716" stroke-linecap="round" stroke-linejoin="round"/>
</g>
<defs>
<clipPath id="clip0_112_28">
<rect width="12" height="12" fill="white"/>
</clipPath>
</defs>
</svg>
