<svg width="12" height="12" viewBox="0 0 12 12" fill="none" xmlns="http://www.w3.org/2000/svg">
<path d="M10.42 2.30494C10.1646 2.04944 9.86141 1.84676 9.52768 1.70848C9.19395 1.5702 8.83624 1.49902 8.475 1.49902C8.11376 1.49902 7.75605 1.5702 7.42232 1.70848C7.08859 1.84676 6.78538 2.04944 6.53 2.30494L6 2.83494L5.47 2.30494C4.95415 1.78909 4.25451 1.49929 3.525 1.49929C2.79548 1.49929 2.09584 1.78909 1.58 2.30494C1.06415 2.82078 0.774353 3.52042 0.774353 4.24994C0.774353 4.97945 1.06415 5.67909 1.58 6.19494L2.11 6.72494L6 10.6149L9.89 6.72494L10.42 6.19494C10.6755 5.93956 10.8782 5.63634 11.0165 5.30261C11.1547 4.96888 11.2259 4.61118 11.2259 4.24994C11.2259 3.88869 11.1547 3.53099 11.0165 3.19726C10.8782 2.86353 10.6755 2.56031 10.42 2.30494Z" stroke="#FCFEFD" stroke-linecap="round" stroke-linejoin="round"/>
</svg>
