<svg width="12" height="12" viewBox="0 0 12 12" fill="none" xmlns="http://www.w3.org/2000/svg">
<g clip-path="url(#clip0_133_143)">
<path d="M8.5 1H3.5C2.11929 1 1 2.11929 1 3.5V8.5C1 9.88071 2.11929 11 3.5 11H8.5C9.88071 11 11 9.88071 11 8.5V3.5C11 2.11929 9.88071 1 8.5 1Z" stroke="#FCFEFD" stroke-linecap="round" stroke-linejoin="round"/>
<path d="M8.00001 5.68491C8.06171 6.10103 7.99064 6.52601 7.79689 6.89941C7.60314 7.27281 7.29658 7.57561 6.92082 7.76474C6.54506 7.95387 6.11923 8.01971 5.7039 7.95287C5.28857 7.88604 4.90489 7.68995 4.60743 7.39249C4.30996 7.09503 4.11387 6.71134 4.04704 6.29601C3.98021 5.88068 4.04604 5.45485 4.23517 5.07909C4.4243 4.70333 4.7271 4.39678 5.1005 4.20303C5.4739 4.00928 5.89888 3.9382 6.31501 3.99991C6.73947 4.06285 7.13243 4.26064 7.43585 4.56406C7.73927 4.86748 7.93706 5.26045 8.00001 5.68491Z" stroke="#FCFEFD" stroke-linecap="round" stroke-linejoin="round"/>
<path d="M8.75 3.25H8.755" stroke="#FCFEFD" stroke-linecap="round" stroke-linejoin="round"/>
</g>
<defs>
<clipPath id="clip0_133_143">
<rect width="12" height="12" fill="white"/>
</clipPath>
</defs>
</svg>
