<svg width="14" height="14" viewBox="0 0 14 14" fill="none" xmlns="http://www.w3.org/2000/svg">
<path d="M1.52276 5.89427C1.91254 3.55339 2.10743 2.38294 2.84734 1.69147C3.58724 1 4.64477 1 6.75983 1H7.24017C9.35523 1 10.4128 1 11.1527 1.69147C11.8926 2.38294 12.0875 3.55339 12.4772 5.89427C13.0253 9.18597 13.2994 10.8318 12.5004 11.9159C11.7014 13 10.2143 13 7.24017 13H6.75983C3.78568 13 2.2986 13 1.49961 11.9159C0.700607 10.8318 0.974657 9.18597 1.52276 5.89427Z" stroke="#191716"/>
<path d="M4.5 3C4.8639 3.5826 5.84581 4 7 4C8.15419 4 9.1361 3.5826 9.5 3" stroke="#191716" stroke-linecap="round"/>
</svg>
