<svg width="56" height="56" viewBox="0 0 56 56" fill="none" xmlns="http://www.w3.org/2000/svg">
<path d="M28 30.3334C29.2887 30.3334 30.3333 29.2887 30.3333 28.0001C30.3333 26.7114 29.2887 25.6667 28 25.6667C26.7113 25.6667 25.6667 26.7114 25.6667 28.0001C25.6667 29.2887 26.7113 30.3334 28 30.3334Z" stroke="#191716" stroke-width="3" stroke-linecap="round" stroke-linejoin="round"/>
<path d="M44.3333 30.3334C45.622 30.3334 46.6667 29.2887 46.6667 28.0001C46.6667 26.7114 45.622 25.6667 44.3333 25.6667C43.0447 25.6667 42 26.7114 42 28.0001C42 29.2887 43.0447 30.3334 44.3333 30.3334Z" stroke="#191716" stroke-width="3" stroke-linecap="round" stroke-linejoin="round"/>
<path d="M11.6667 30.3334C12.9553 30.3334 14 29.2887 14 28.0001C14 26.7114 12.9553 25.6667 11.6667 25.6667C10.378 25.6667 9.33334 26.7114 9.33334 28.0001C9.33334 29.2887 10.378 30.3334 11.6667 30.3334Z" stroke="#191716" stroke-width="3" stroke-linecap="round" stroke-linejoin="round"/>
</svg>
