<svg width="12" height="12" viewBox="0 0 12 12" fill="none" xmlns="http://www.w3.org/2000/svg">
<g clip-path="url(#clip0_133_1461)">
<path d="M6 11C8.76142 11 11 8.76142 11 6C11 3.23858 8.76142 1 6 1C3.23858 1 1 3.23858 1 6C1 8.76142 3.23858 11 6 11Z" stroke="#61210F" stroke-linecap="round" stroke-linejoin="round"/>
<path d="M4.545 4.4998C4.66255 4.16563 4.89457 3.88385 5.19998 3.70436C5.50538 3.52488 5.86445 3.45927 6.21359 3.51915C6.56273 3.57904 6.87941 3.76056 7.10754 4.03156C7.33567 4.30256 7.46053 4.64556 7.46 4.9998C7.46 5.9998 5.96 6.4998 5.96 6.4998" stroke="#61210F" stroke-linecap="round" stroke-linejoin="round"/>
<path d="M6 8.5H6.005" stroke="#61210F" stroke-linecap="round" stroke-linejoin="round"/>
</g>
<defs>
<clipPath id="clip0_133_1461">
<rect width="12" height="12" fill="white"/>
</clipPath>
</defs>
</svg>
