<svg width="12" height="12" viewBox="0 0 12 12" fill="none" xmlns="http://www.w3.org/2000/svg">
<g clip-path="url(#clip0_133_1452)">
<path d="M8.5 1H3.5C2.11929 1 1 2.11929 1 3.5V8.5C1 9.88071 2.11929 11 3.5 11H8.5C9.88071 11 11 9.88071 11 8.5V3.5C11 2.11929 9.88071 1 8.5 1Z" stroke="#61210F" stroke-linecap="round" stroke-linejoin="round"/>
<path d="M8.00001 5.68515C8.06171 6.10127 7.99064 6.52626 7.79689 6.89966C7.60314 7.27306 7.29658 7.57586 6.92082 7.76499C6.54506 7.95412 6.11923 8.01995 5.7039 7.95312C5.28857 7.88628 4.90489 7.69019 4.60743 7.39273C4.30996 7.09527 4.11387 6.71159 4.04704 6.29626C3.98021 5.88093 4.04604 5.4551 4.23517 5.07934C4.4243 4.70358 4.7271 4.39702 5.1005 4.20327C5.4739 4.00952 5.89888 3.93844 6.31501 4.00015C6.73947 4.06309 7.13243 4.26088 7.43585 4.5643C7.73927 4.86773 7.93706 5.26069 8.00001 5.68515Z" stroke="#61210F" stroke-linecap="round" stroke-linejoin="round"/>
<path d="M8.75 3.25H8.755" stroke="#61210F" stroke-linecap="round" stroke-linejoin="round"/>
</g>
<defs>
<clipPath id="clip0_133_1452">
<rect width="12" height="12" fill="white"/>
</clipPath>
</defs>
</svg>
