<svg width="26" height="26" viewBox="0 0 26 26" fill="none" xmlns="http://www.w3.org/2000/svg">
<path d="M2.04552 10.7885C2.82508 6.10677 3.21486 3.76589 4.69467 2.38294C6.17448 1 8.28954 1 12.5197 1H13.4803C17.7105 1 19.8255 1 21.3053 2.38294C22.7851 3.76589 23.1749 6.10677 23.9545 10.7885C25.0507 17.3719 25.5988 20.6636 24.0008 22.8318C22.4028 25 19.4286 25 13.4803 25H12.5197C6.57136 25 3.59721 25 1.99921 22.8318C0.401214 20.6636 0.949313 17.3719 2.04552 10.7885Z" stroke="#FCFEFD" stroke-width="1.5"/>
<path d="M9.57144 6.53841C10.0705 8.68953 11.4171 10.2307 13 10.2307C14.5829 10.2307 15.9295 8.68953 16.4286 6.53841" stroke="#FCFEFD" stroke-width="1.5" stroke-linecap="round"/>
</svg>
