<svg width="56" height="56" viewBox="0 0 56 56" fill="none" xmlns="http://www.w3.org/2000/svg">
<path d="M48.6267 10.7565C47.4349 9.56421 46.0199 8.61837 44.4625 7.97306C42.9051 7.32775 41.2358 6.99561 39.55 6.99561C37.8642 6.99561 36.1949 7.32775 34.6375 7.97306C33.0801 8.61837 31.6651 9.56421 30.4733 10.7565L28 13.2299L25.5267 10.7565C23.1194 8.34925 19.8544 6.99685 16.45 6.99685C13.0456 6.99685 9.78061 8.34925 7.37333 10.7565C4.96604 13.1638 3.61365 16.4288 3.61365 19.8332C3.61365 23.2376 4.96604 26.5026 7.37333 28.9099L9.84666 31.3832L28 49.5365L46.1533 31.3832L48.6267 28.9099C49.819 27.7181 50.7648 26.3031 51.4101 24.7457C52.0554 23.1883 52.3876 21.519 52.3876 19.8332C52.3876 18.1474 52.0554 16.4781 51.4101 14.9207C50.7648 13.3633 49.819 11.9483 48.6267 10.7565Z" stroke="#61210F" stroke-width="3" stroke-linecap="round" stroke-linejoin="round"/>
</svg>
