<svg width="56" height="56" viewBox="0 0 56 56" fill="none" xmlns="http://www.w3.org/2000/svg">
<path d="M39.6667 4.6665H16.3334C9.89003 4.6665 4.66669 9.88985 4.66669 16.3332V39.6665C4.66669 46.1098 9.89003 51.3332 16.3334 51.3332H39.6667C46.11 51.3332 51.3334 46.1098 51.3334 39.6665V16.3332C51.3334 9.88985 46.11 4.6665 39.6667 4.6665Z" stroke="#61210F" stroke-width="3" stroke-linecap="round" stroke-linejoin="round"/>
<path d="M37.3334 26.5302C37.6213 28.4721 37.2896 30.4554 36.3855 32.1979C35.4813 33.9404 34.0507 35.3535 32.2972 36.2361C30.5436 37.1187 28.5564 37.4259 26.6182 37.1141C24.68 36.8022 22.8895 35.8871 21.5013 34.4989C20.1132 33.1108 19.1981 31.3203 18.8862 29.382C18.5743 27.4438 18.8815 25.4566 19.7641 23.7031C20.6467 21.9495 22.0598 20.5189 23.8023 19.6148C25.5449 18.7106 27.5281 18.3789 29.47 18.6669C31.4508 18.9606 33.2847 19.8836 34.7006 21.2996C36.1166 22.7156 37.0396 24.5494 37.3334 26.5302Z" stroke="#61210F" stroke-width="3" stroke-linecap="round" stroke-linejoin="round"/>
<path d="M40.8333 15.1665H40.8566" stroke="#61210F" stroke-width="3" stroke-linecap="round" stroke-linejoin="round"/>
</svg>
