<svg width="56" height="56" viewBox="0 0 56 56" fill="none" xmlns="http://www.w3.org/2000/svg">
<path d="M28 30.3332C29.2887 30.3332 30.3333 29.2885 30.3333 27.9998C30.3333 26.7112 29.2887 25.6665 28 25.6665C26.7113 25.6665 25.6667 26.7112 25.6667 27.9998C25.6667 29.2885 26.7113 30.3332 28 30.3332Z" stroke="#61210F" stroke-width="3" stroke-linecap="round" stroke-linejoin="round"/>
<path d="M44.3333 30.3332C45.622 30.3332 46.6667 29.2885 46.6667 27.9998C46.6667 26.7112 45.622 25.6665 44.3333 25.6665C43.0447 25.6665 42 26.7112 42 27.9998C42 29.2885 43.0447 30.3332 44.3333 30.3332Z" stroke="#61210F" stroke-width="3" stroke-linecap="round" stroke-linejoin="round"/>
<path d="M11.6667 30.3332C12.9553 30.3332 14 29.2885 14 27.9998C14 26.7112 12.9553 25.6665 11.6667 25.6665C10.378 25.6665 9.33334 26.7112 9.33334 27.9998C9.33334 29.2885 10.378 30.3332 11.6667 30.3332Z" stroke="#61210F" stroke-width="3" stroke-linecap="round" stroke-linejoin="round"/>
</svg>
