<svg width="56" height="56" viewBox="0 0 56 56" fill="none" xmlns="http://www.w3.org/2000/svg">
<path d="M21 51.3332C22.2887 51.3332 23.3334 50.2885 23.3334 48.9998C23.3334 47.7112 22.2887 46.6665 21 46.6665C19.7114 46.6665 18.6667 47.7112 18.6667 48.9998C18.6667 50.2885 19.7114 51.3332 21 51.3332Z" stroke="#61210F" stroke-width="3" stroke-linecap="round" stroke-linejoin="round"/>
<path d="M46.6666 51.3332C47.9553 51.3332 49 50.2885 49 48.9998C49 47.7112 47.9553 46.6665 46.6666 46.6665C45.378 46.6665 44.3333 47.7112 44.3333 48.9998C44.3333 50.2885 45.378 51.3332 46.6666 51.3332Z" stroke="#61210F" stroke-width="3" stroke-linecap="round" stroke-linejoin="round"/>
<path d="M2.33331 2.3335H11.6666L17.92 33.5768C18.1333 34.6511 18.7178 35.6161 19.5709 36.3029C20.4241 36.9896 21.4916 37.3545 22.5866 37.3335H45.2666C46.3617 37.3545 47.4292 36.9896 48.2824 36.3029C49.1355 35.6161 49.7199 34.6511 49.9333 33.5768L53.6666 14.0002H14" stroke="#61210F" stroke-width="3" stroke-linecap="round" stroke-linejoin="round"/>
</svg>
