<svg width="56" height="56" viewBox="0 0 56 56" fill="none" xmlns="http://www.w3.org/2000/svg">
<path d="M28 51.3332C40.8867 51.3332 51.3333 40.8865 51.3333 27.9998C51.3333 15.1132 40.8867 4.6665 28 4.6665C15.1134 4.6665 4.66667 15.1132 4.66667 27.9998C4.66667 40.8865 15.1134 51.3332 28 51.3332Z" stroke="#FCFEFD" stroke-width="3" stroke-linecap="round" stroke-linejoin="round"/>
<path d="M21.21 20.9999C21.7586 19.4404 22.8414 18.1254 24.2666 17.2878C25.6918 16.4502 27.3674 16.1441 28.9968 16.4235C30.6261 16.703 32.1039 17.5501 33.1685 18.8148C34.2331 20.0794 34.8158 21.6801 34.8133 23.3332C34.8133 27.9999 27.8133 30.3332 27.8133 30.3332" stroke="#FCFEFD" stroke-width="3" stroke-linecap="round" stroke-linejoin="round"/>
<path d="M28 39.6665H28.0233" stroke="#FCFEFD" stroke-width="3" stroke-linecap="round" stroke-linejoin="round"/>
</svg>
