<svg width="56" height="56" viewBox="0 0 56 56" fill="none" xmlns="http://www.w3.org/2000/svg">
<path d="M49 23.3335C49 39.6668 28 53.6668 28 53.6668C28 53.6668 7 39.6668 7 23.3335C7 17.7639 9.21249 12.4225 13.1508 8.48425C17.089 4.54599 22.4305 2.3335 28 2.3335C33.5695 2.3335 38.911 4.54599 42.8492 8.48425C46.7875 12.4225 49 17.7639 49 23.3335Z" stroke="#FCFEFD" stroke-width="3" stroke-linecap="round" stroke-linejoin="round"/>
<path d="M28 30.3335C31.866 30.3335 35 27.1995 35 23.3335C35 19.4675 31.866 16.3335 28 16.3335C24.134 16.3335 21 19.4675 21 23.3335C21 27.1995 24.134 30.3335 28 30.3335Z" stroke="#FCFEFD" stroke-width="3" stroke-linecap="round" stroke-linejoin="round"/>
</svg>
