<svg width="60" height="60" viewBox="0 0 60 60" fill="none" xmlns="http://www.w3.org/2000/svg">
<path d="M4.43954 24.8399C6.25852 13.9158 7.16802 8.45374 10.6209 5.22687C14.0738 2 19.0089 2 28.8792 2H31.1208C40.9911 2 45.9262 2 49.3791 5.22687C52.832 8.45374 53.7415 13.9158 55.5605 24.8399C58.1183 40.2012 59.3972 47.8818 55.6685 52.9409C51.9398 58 45.0002 58 31.1208 58H28.8792C14.9998 58 8.06015 58 4.33149 52.9409C0.602833 47.8818 1.88173 40.2012 4.43954 24.8399Z" stroke="#FCFEFD" stroke-width="3"/>
<path d="M18.3333 11.3333C20.0316 14.0521 24.6138 16 30 16C35.3862 16 39.9685 14.0521 41.6667 11.3333" stroke="#FCFEFD" stroke-width="3" stroke-linecap="round"/>
</svg>
