<svg width="56" height="56" viewBox="0 0 56 56" fill="none" xmlns="http://www.w3.org/2000/svg">
<path d="M21 51.3334C22.2887 51.3334 23.3334 50.2887 23.3334 49.0001C23.3334 47.7114 22.2887 46.6667 21 46.6667C19.7114 46.6667 18.6667 47.7114 18.6667 49.0001C18.6667 50.2887 19.7114 51.3334 21 51.3334Z" stroke="#FCFEFD" stroke-width="3" stroke-linecap="round" stroke-linejoin="round"/>
<path d="M46.6666 51.3334C47.9553 51.3334 49 50.2887 49 49.0001C49 47.7114 47.9553 46.6667 46.6666 46.6667C45.378 46.6667 44.3333 47.7114 44.3333 49.0001C44.3333 50.2887 45.378 51.3334 46.6666 51.3334Z" stroke="#FCFEFD" stroke-width="3" stroke-linecap="round" stroke-linejoin="round"/>
<path d="M2.33331 2.33325H11.6666L17.92 33.5766C18.1333 34.6508 18.7178 35.6158 19.5709 36.3026C20.4241 36.9894 21.4916 37.3542 22.5866 37.3333H45.2666C46.3617 37.3542 47.4292 36.9894 48.2824 36.3026C49.1355 35.6158 49.7199 34.6508 49.9333 33.5766L53.6666 13.9999H14" stroke="#FCFEFD" stroke-width="3" stroke-linecap="round" stroke-linejoin="round"/>
</svg>
