<svg width="16" height="16" viewBox="0 0 16 16" fill="none" xmlns="http://www.w3.org/2000/svg">
<g clip-path="url(#clip0_112_57)">
<path d="M7.99999 14.6667C11.6819 14.6667 14.6667 11.6819 14.6667 8.00004C14.6667 4.31814 11.6819 1.33337 7.99999 1.33337C4.3181 1.33337 1.33333 4.31814 1.33333 8.00004C1.33333 11.6819 4.3181 14.6667 7.99999 14.6667Z" stroke="#191716" stroke-width="1.5" stroke-linecap="round" stroke-linejoin="round"/>
<path d="M6.06 6.00001C6.21673 5.55446 6.5261 5.17875 6.9333 4.93944C7.3405 4.70012 7.81926 4.61264 8.28478 4.69249C8.7503 4.77234 9.17254 5.01436 9.47672 5.3757C9.78089 5.73703 9.94737 6.19436 9.94666 6.66668C9.94666 8.00001 7.94666 8.66668 7.94666 8.66668" stroke="#191716" stroke-width="1.5" stroke-linecap="round" stroke-linejoin="round"/>
<path d="M8 11.3334H8.00667" stroke="#191716" stroke-width="1.5" stroke-linecap="round" stroke-linejoin="round"/>
</g>
<defs>
<clipPath id="clip0_112_57">
<rect width="16" height="16" fill="white"/>
</clipPath>
</defs>
</svg>
