<svg width="16" height="16" viewBox="0 0 16 16" fill="none" xmlns="http://www.w3.org/2000/svg">
<g clip-path="url(#clip0_112_53)">
<path d="M11.3333 1.33337H4.66668C2.82573 1.33337 1.33334 2.82576 1.33334 4.66671V11.3334C1.33334 13.1743 2.82573 14.6667 4.66668 14.6667H11.3333C13.1743 14.6667 14.6667 13.1743 14.6667 11.3334V4.66671C14.6667 2.82576 13.1743 1.33337 11.3333 1.33337Z" stroke="#191716" stroke-width="1.5" stroke-linecap="round" stroke-linejoin="round"/>
<path d="M10.6667 7.57996C10.7489 8.13479 10.6542 8.70143 10.3958 9.1993C10.1375 9.69717 9.72877 10.1009 9.22776 10.3531C8.72675 10.6052 8.15897 10.693 7.6052 10.6039C7.05143 10.5148 6.53985 10.2533 6.14323 9.85673C5.74662 9.46012 5.48516 8.94854 5.39605 8.39477C5.30694 7.84099 5.39472 7.27322 5.64689 6.77221C5.89907 6.27119 6.3028 5.86245 6.80066 5.60412C7.29853 5.34579 7.86518 5.25102 8.42001 5.33329C8.98596 5.41721 9.50991 5.68093 9.91447 6.08549C10.319 6.49006 10.5828 7.01401 10.6667 7.57996Z" stroke="#191716" stroke-linecap="round" stroke-linejoin="round"/>
<path d="M11.6667 4.33337H11.6733" stroke="#191716" stroke-width="1.5" stroke-linecap="round" stroke-linejoin="round"/>
</g>
<defs>
<clipPath id="clip0_112_53">
<rect width="16" height="16" fill="white"/>
</clipPath>
</defs>
</svg>
