<svg width="16" height="16" viewBox="0 0 16 16" fill="none" xmlns="http://www.w3.org/2000/svg">
<g clip-path="url(#clip0_112_45)">
<path d="M6.00001 14.6667C6.3682 14.6667 6.66668 14.3682 6.66668 14C6.66668 13.6319 6.3682 13.3334 6.00001 13.3334C5.63182 13.3334 5.33334 13.6319 5.33334 14C5.33334 14.3682 5.63182 14.6667 6.00001 14.6667Z" stroke="#191716" stroke-width="1.5" stroke-linecap="round" stroke-linejoin="round"/>
<path d="M13.3333 14.6667C13.7015 14.6667 14 14.3682 14 14C14 13.6319 13.7015 13.3334 13.3333 13.3334C12.9651 13.3334 12.6667 13.6319 12.6667 14C12.6667 14.3682 12.9651 14.6667 13.3333 14.6667Z" stroke="#191716" stroke-width="1.5" stroke-linecap="round" stroke-linejoin="round"/>
<path d="M0.666656 0.666626H3.33332L5.11999 9.59329C5.18095 9.90022 5.34793 10.1759 5.59169 10.3722C5.83545 10.5684 6.14046 10.6726 6.45332 10.6666H12.9333C13.2462 10.6726 13.5512 10.5684 13.795 10.3722C14.0387 10.1759 14.2057 9.90022 14.2667 9.59329L15.3333 3.99996H3.99999" stroke="#191716" stroke-width="1.5" stroke-linecap="round" stroke-linejoin="round"/>
</g>
<defs>
<clipPath id="clip0_112_45">
<rect width="16" height="16" fill="white"/>
</clipPath>
</defs>
</svg>
